<svg width="20" height="22" viewBox="0 0 20 22" fill="none" xmlns="http://www.w3.org/2000/svg">
<path d="M7.671 3.136C7.7261 2.55634 7.99533 2.01805 8.4261 1.62628C8.85687 1.23452 9.41823 1.01743 10.0005 1.01743C10.5828 1.01743 11.1441 1.23452 11.5749 1.62628C12.0057 2.01805 12.2749 2.55634 12.33 3.136C12.3631 3.51046 12.486 3.87142 12.6881 4.18834C12.8903 4.50526 13.1659 4.76881 13.4915 4.95668C13.8171 5.14455 14.1831 5.2512 14.5587 5.26762C14.9343 5.28404 15.3082 5.20974 15.649 5.051C16.1781 4.81078 16.7777 4.77602 17.331 4.95349C17.8843 5.13095 18.3518 5.50795 18.6425 6.01111C18.9332 6.51426 19.0263 7.10757 18.9036 7.67557C18.781 8.24357 18.4514 8.74562 17.979 9.084C17.6714 9.29985 17.4203 9.58661 17.2469 9.92003C17.0736 10.2534 16.983 10.6237 16.983 10.9995C16.983 11.3753 17.0736 11.7456 17.2469 12.079C17.4203 12.4124 17.6714 12.6992 17.979 12.915C18.4514 13.2534 18.781 13.7554 18.9036 14.3234C19.0263 14.8914 18.9332 15.4847 18.6425 15.9879C18.3518 16.4911 17.8843 16.868 17.331 17.0455C16.7777 17.223 16.1781 17.1882 15.649 16.948C15.3082 16.7893 14.9343 16.715 14.5587 16.7314C14.1831 16.7478 13.8171 16.8545 13.4915 17.0423C13.1659 17.2302 12.8903 17.4937 12.6881 17.8107C12.486 18.1276 12.3631 18.4885 12.33 18.863C12.2749 19.4427 12.0057 19.981 11.5749 20.3727C11.1441 20.7645 10.5828 20.9816 10.0005 20.9816C9.41823 20.9816 8.85687 20.7645 8.4261 20.3727C7.99533 19.981 7.7261 19.4427 7.671 18.863C7.63794 18.4884 7.5151 18.1273 7.31286 17.8103C7.11063 17.4932 6.83497 17.2296 6.50923 17.0417C6.18349 16.8538 5.81727 16.7472 5.44158 16.7309C5.06589 16.7146 4.6918 16.7891 4.351 16.948C3.82189 17.1882 3.22233 17.223 2.669 17.0455C2.11567 16.868 1.64817 16.4911 1.35748 15.9879C1.06679 15.4847 0.973714 14.8914 1.09636 14.3234C1.219 13.7554 1.5486 13.2534 2.021 12.915C2.32862 12.6992 2.57973 12.4124 2.75309 12.079C2.92645 11.7456 3.01695 11.3753 3.01695 10.9995C3.01695 10.6237 2.92645 10.2534 2.75309 9.92003C2.57973 9.58661 2.32862 9.29985 2.021 9.084C1.54926 8.74545 1.22025 8.2436 1.0979 7.67598C0.975552 7.10837 1.06861 6.51554 1.35898 6.01271C1.64936 5.50989 2.11631 5.13298 2.66909 4.95524C3.22187 4.7775 3.82098 4.81164 4.35 5.051C4.69076 5.20974 5.06474 5.28404 5.4403 5.26762C5.81586 5.2512 6.18193 5.14455 6.50754 4.95668C6.83314 4.76881 7.10869 4.50526 7.31086 4.18834C7.51304 3.87142 7.63588 3.51046 7.669 3.136M13 11C13 12.6569 11.6569 14 10 14C8.34314 14 7 12.6569 7 11C7 9.34315 8.34314 8 10 8C11.6569 8 13 9.34315 13 11Z" stroke="#94CBFF" stroke-width="2" stroke-linecap="round" stroke-linejoin="round"/>
</svg>
